<?xml version="1.0" encoding="utf-8"?>
<svg xmlns="http://www.w3.org/2000/svg" xmlns:xlink="http://www.w3.org/1999/xlink" width="600" height="400" viewBox="0 0 2400 1600">
<defs>
  <clipPath id="clip0400">
    <rect x="0" y="0" width="2400" height="1600"/>
  </clipPath>
</defs>
<polygon clip-path="url(#clip0400)" points="
0,1600 2400,1600 2400,0 0,0 
  " fill="#ffffff" fill-rule="evenodd" fill-opacity="1"/>
<defs>
  <clipPath id="clip0401">
    <rect x="480" y="0" width="1681" height="1600"/>
  </clipPath>
</defs>
<polygon clip-path="url(#clip0400)" points="
294.994,1370.31 2352.76,1370.31 2352.76,47.2441 294.994,47.2441 
  " fill="#ffffff" fill-rule="evenodd" fill-opacity="1"/>
<defs>
  <clipPath id="clip0402">
    <rect x="294" y="47" width="2059" height="1324"/>
  </clipPath>
</defs>
<polyline clip-path="url(#clip0402)" style="stroke:#000000; stroke-width:2; stroke-opacity:0.1; fill:none" points="
  353.232,1370.31 353.232,47.2441 
  "/>
<polyline clip-path="url(#clip0402)" style="stroke:#000000; stroke-width:2; stroke-opacity:0.1; fill:none" points="
  741.489,1370.31 741.489,47.2441 
  "/>
<polyline clip-path="url(#clip0402)" style="stroke:#000000; stroke-width:2; stroke-opacity:0.1; fill:none" points="
  1129.75,1370.31 1129.75,47.2441 
  "/>
<polyline clip-path="url(#clip0402)" style="stroke:#000000; stroke-width:2; stroke-opacity:0.1; fill:none" points="
  1518,1370.31 1518,47.2441 
  "/>
<polyline clip-path="url(#clip0402)" style="stroke:#000000; stroke-width:2; stroke-opacity:0.1; fill:none" points="
  1906.26,1370.31 1906.26,47.2441 
  "/>
<polyline clip-path="url(#clip0402)" style="stroke:#000000; stroke-width:2; stroke-opacity:0.1; fill:none" points="
  2294.52,1370.31 2294.52,47.2441 
  "/>
<polyline clip-path="url(#clip0402)" style="stroke:#000000; stroke-width:2; stroke-opacity:0.1; fill:none" points="
  294.994,1370.31 2352.76,1370.31 
  "/>
<polyline clip-path="url(#clip0402)" style="stroke:#000000; stroke-width:2; stroke-opacity:0.1; fill:none" points="
  294.994,1104.36 2352.76,1104.36 
  "/>
<polyline clip-path="url(#clip0402)" style="stroke:#000000; stroke-width:2; stroke-opacity:0.1; fill:none" points="
  294.994,838.415 2352.76,838.415 
  "/>
<polyline clip-path="url(#clip0402)" style="stroke:#000000; stroke-width:2; stroke-opacity:0.1; fill:none" points="
  294.994,572.47 2352.76,572.47 
  "/>
<polyline clip-path="url(#clip0402)" style="stroke:#000000; stroke-width:2; stroke-opacity:0.1; fill:none" points="
  294.994,306.524 2352.76,306.524 
  "/>
<polyline clip-path="url(#clip0400)" style="stroke:#000000; stroke-width:4; stroke-opacity:1; fill:none" points="
  294.994,1370.31 2352.76,1370.31 
  "/>
<polyline clip-path="url(#clip0400)" style="stroke:#000000; stroke-width:4; stroke-opacity:1; fill:none" points="
  294.994,1370.31 294.994,47.2441 
  "/>
<polyline clip-path="url(#clip0400)" style="stroke:#000000; stroke-width:4; stroke-opacity:1; fill:none" points="
  353.232,1370.31 353.232,1350.46 
  "/>
<polyline clip-path="url(#clip0400)" style="stroke:#000000; stroke-width:4; stroke-opacity:1; fill:none" points="
  741.489,1370.31 741.489,1350.46 
  "/>
<polyline clip-path="url(#clip0400)" style="stroke:#000000; stroke-width:4; stroke-opacity:1; fill:none" points="
  1129.75,1370.31 1129.75,1350.46 
  "/>
<polyline clip-path="url(#clip0400)" style="stroke:#000000; stroke-width:4; stroke-opacity:1; fill:none" points="
  1518,1370.31 1518,1350.46 
  "/>
<polyline clip-path="url(#clip0400)" style="stroke:#000000; stroke-width:4; stroke-opacity:1; fill:none" points="
  1906.26,1370.31 1906.26,1350.46 
  "/>
<polyline clip-path="url(#clip0400)" style="stroke:#000000; stroke-width:4; stroke-opacity:1; fill:none" points="
  2294.52,1370.31 2294.52,1350.46 
  "/>
<polyline clip-path="url(#clip0400)" style="stroke:#000000; stroke-width:4; stroke-opacity:1; fill:none" points="
  294.994,1370.31 325.86,1370.31 
  "/>
<polyline clip-path="url(#clip0400)" style="stroke:#000000; stroke-width:4; stroke-opacity:1; fill:none" points="
  294.994,1104.36 325.86,1104.36 
  "/>
<polyline clip-path="url(#clip0400)" style="stroke:#000000; stroke-width:4; stroke-opacity:1; fill:none" points="
  294.994,838.415 325.86,838.415 
  "/>
<polyline clip-path="url(#clip0400)" style="stroke:#000000; stroke-width:4; stroke-opacity:1; fill:none" points="
  294.994,572.47 325.86,572.47 
  "/>
<polyline clip-path="url(#clip0400)" style="stroke:#000000; stroke-width:4; stroke-opacity:1; fill:none" points="
  294.994,306.524 325.86,306.524 
  "/>
<g clip-path="url(#clip0400)">
<text style="fill:#000000; fill-opacity:1; font-family:Arial,Helvetica Neue,Helvetica,sans-serif; font-size:48px; text-anchor:middle;" transform="rotate(0, 353.232, 1424.31)" x="353.232" y="1424.31">1</text>
</g>
<g clip-path="url(#clip0400)">
<text style="fill:#000000; fill-opacity:1; font-family:Arial,Helvetica Neue,Helvetica,sans-serif; font-size:48px; text-anchor:middle;" transform="rotate(0, 741.489, 1424.31)" x="741.489" y="1424.31">2</text>
</g>
<g clip-path="url(#clip0400)">
<text style="fill:#000000; fill-opacity:1; font-family:Arial,Helvetica Neue,Helvetica,sans-serif; font-size:48px; text-anchor:middle;" transform="rotate(0, 1129.75, 1424.31)" x="1129.75" y="1424.31">3</text>
</g>
<g clip-path="url(#clip0400)">
<text style="fill:#000000; fill-opacity:1; font-family:Arial,Helvetica Neue,Helvetica,sans-serif; font-size:48px; text-anchor:middle;" transform="rotate(0, 1518, 1424.31)" x="1518" y="1424.31">4</text>
</g>
<g clip-path="url(#clip0400)">
<text style="fill:#000000; fill-opacity:1; font-family:Arial,Helvetica Neue,Helvetica,sans-serif; font-size:48px; text-anchor:middle;" transform="rotate(0, 1906.26, 1424.31)" x="1906.26" y="1424.31">5</text>
</g>
<g clip-path="url(#clip0400)">
<text style="fill:#000000; fill-opacity:1; font-family:Arial,Helvetica Neue,Helvetica,sans-serif; font-size:48px; text-anchor:middle;" transform="rotate(0, 2294.52, 1424.31)" x="2294.52" y="1424.31">6</text>
</g>
<g clip-path="url(#clip0400)">
<text style="fill:#000000; fill-opacity:1; font-family:Arial,Helvetica Neue,Helvetica,sans-serif; font-size:48px; text-anchor:end;" transform="rotate(0, 270.994, 1387.81)" x="270.994" y="1387.81">0.0</text>
</g>
<g clip-path="url(#clip0400)">
<text style="fill:#000000; fill-opacity:1; font-family:Arial,Helvetica Neue,Helvetica,sans-serif; font-size:48px; text-anchor:end;" transform="rotate(0, 270.994, 1121.86)" x="270.994" y="1121.86">0.5</text>
</g>
<g clip-path="url(#clip0400)">
<text style="fill:#000000; fill-opacity:1; font-family:Arial,Helvetica Neue,Helvetica,sans-serif; font-size:48px; text-anchor:end;" transform="rotate(0, 270.994, 855.915)" x="270.994" y="855.915">1.0</text>
</g>
<g clip-path="url(#clip0400)">
<text style="fill:#000000; fill-opacity:1; font-family:Arial,Helvetica Neue,Helvetica,sans-serif; font-size:48px; text-anchor:end;" transform="rotate(0, 270.994, 589.97)" x="270.994" y="589.97">1.5</text>
</g>
<g clip-path="url(#clip0400)">
<text style="fill:#000000; fill-opacity:1; font-family:Arial,Helvetica Neue,Helvetica,sans-serif; font-size:48px; text-anchor:end;" transform="rotate(0, 270.994, 324.024)" x="270.994" y="324.024">2.0</text>
</g>
<g clip-path="url(#clip0400)">
<text style="fill:#000000; fill-opacity:1; font-family:Arial,Helvetica Neue,Helvetica,sans-serif; font-size:66px; text-anchor:middle;" transform="rotate(0, 1323.87, 1504.17)" x="1323.87" y="1504.17">Number of threads</text>
</g>
<g clip-path="url(#clip0400)">
<text style="fill:#000000; fill-opacity:1; font-family:Arial,Helvetica Neue,Helvetica,sans-serif; font-size:66px; text-anchor:middle;" transform="rotate(-90, 168.526, 708.775)" x="168.526" y="708.775">Time [s]</text>
</g>
<polyline clip-path="url(#clip0402)" style="stroke:#009af9; stroke-width:4; stroke-opacity:1; fill:none" points="
  353.232,47.2441 741.489,677.762 1129.75,916.919 1518,1030.85 1906.26,1096.48 2294.52,1115.41 
  "/>
<polyline clip-path="url(#clip0402)" style="stroke:#e26f46; stroke-width:4; stroke-opacity:1; fill:none" points="
  -205481,1141.92 208129,1141.92 
  "/>
<polygon clip-path="url(#clip0400)" points="
1834.74,312.204 2280.76,312.204 2280.76,130.764 1834.74,130.764 
  " fill="#ffffff" fill-rule="evenodd" fill-opacity="1"/>
<polyline clip-path="url(#clip0400)" style="stroke:#000000; stroke-width:4; stroke-opacity:1; fill:none" points="
  1834.74,312.204 2280.76,312.204 2280.76,130.764 1834.74,130.764 1834.74,312.204 
  "/>
<polyline clip-path="url(#clip0400)" style="stroke:#009af9; stroke-width:4; stroke-opacity:1; fill:none" points="
  1858.74,191.244 2002.74,191.244 
  "/>
<g clip-path="url(#clip0400)">
<text style="fill:#000000; fill-opacity:1; font-family:Arial,Helvetica Neue,Helvetica,sans-serif; font-size:48px; text-anchor:start;" transform="rotate(0, 2026.74, 208.744)" x="2026.74" y="208.744">y1</text>
</g>
<polyline clip-path="url(#clip0400)" style="stroke:#e26f46; stroke-width:4; stroke-opacity:1; fill:none" points="
  1858.74,251.724 2002.74,251.724 
  "/>
<g clip-path="url(#clip0400)">
<text style="fill:#000000; fill-opacity:1; font-family:Arial,Helvetica Neue,Helvetica,sans-serif; font-size:48px; text-anchor:start;" transform="rotate(0, 2026.74, 269.224)" x="2026.74" y="269.224">720 tasks</text>
</g>
</svg>
