<?xml version="1.0" encoding="utf-8"?>
<svg xmlns="http://www.w3.org/2000/svg" xmlns:xlink="http://www.w3.org/1999/xlink" width="600" height="400" viewBox="0 0 2400 1600">
<defs>
  <clipPath id="clip0100">
    <rect x="0" y="0" width="2400" height="1600"/>
  </clipPath>
</defs>
<polygon clip-path="url(#clip0100)" points="
0,1600 2400,1600 2400,0 0,0 
  " fill="#ffffff" fill-rule="evenodd" fill-opacity="1"/>
<defs>
  <clipPath id="clip0101">
    <rect x="480" y="0" width="1681" height="1600"/>
  </clipPath>
</defs>
<polygon clip-path="url(#clip0100)" points="
379.474,1370.31 2352.76,1370.31 2352.76,47.2441 379.474,47.2441 
  " fill="#ffffff" fill-rule="evenodd" fill-opacity="1"/>
<defs>
  <clipPath id="clip0102">
    <rect x="379" y="47" width="1974" height="1324"/>
  </clipPath>
</defs>
<polyline clip-path="url(#clip0102)" style="stroke:#000000; stroke-width:2; stroke-opacity:0.1; fill:none" points="
  435.321,1370.31 435.321,47.2441 
  "/>
<polyline clip-path="url(#clip0102)" style="stroke:#000000; stroke-width:2; stroke-opacity:0.1; fill:none" points="
  807.639,1370.31 807.639,47.2441 
  "/>
<polyline clip-path="url(#clip0102)" style="stroke:#000000; stroke-width:2; stroke-opacity:0.1; fill:none" points="
  1179.96,1370.31 1179.96,47.2441 
  "/>
<polyline clip-path="url(#clip0102)" style="stroke:#000000; stroke-width:2; stroke-opacity:0.1; fill:none" points="
  1552.27,1370.31 1552.27,47.2441 
  "/>
<polyline clip-path="url(#clip0102)" style="stroke:#000000; stroke-width:2; stroke-opacity:0.1; fill:none" points="
  1924.59,1370.31 1924.59,47.2441 
  "/>
<polyline clip-path="url(#clip0102)" style="stroke:#000000; stroke-width:2; stroke-opacity:0.1; fill:none" points="
  2296.91,1370.31 2296.91,47.2441 
  "/>
<polyline clip-path="url(#clip0102)" style="stroke:#000000; stroke-width:2; stroke-opacity:0.1; fill:none" points="
  379.474,1370.31 2352.76,1370.31 
  "/>
<polyline clip-path="url(#clip0102)" style="stroke:#000000; stroke-width:2; stroke-opacity:0.1; fill:none" points="
  379.474,1039.19 2352.76,1039.19 
  "/>
<polyline clip-path="url(#clip0102)" style="stroke:#000000; stroke-width:2; stroke-opacity:0.1; fill:none" points="
  379.474,708.071 2352.76,708.071 
  "/>
<polyline clip-path="url(#clip0102)" style="stroke:#000000; stroke-width:2; stroke-opacity:0.1; fill:none" points="
  379.474,376.953 2352.76,376.953 
  "/>
<polyline clip-path="url(#clip0100)" style="stroke:#000000; stroke-width:4; stroke-opacity:1; fill:none" points="
  379.474,1370.31 2352.76,1370.31 
  "/>
<polyline clip-path="url(#clip0100)" style="stroke:#000000; stroke-width:4; stroke-opacity:1; fill:none" points="
  379.474,1370.31 379.474,47.2441 
  "/>
<polyline clip-path="url(#clip0100)" style="stroke:#000000; stroke-width:4; stroke-opacity:1; fill:none" points="
  435.321,1370.31 435.321,1350.46 
  "/>
<polyline clip-path="url(#clip0100)" style="stroke:#000000; stroke-width:4; stroke-opacity:1; fill:none" points="
  807.639,1370.31 807.639,1350.46 
  "/>
<polyline clip-path="url(#clip0100)" style="stroke:#000000; stroke-width:4; stroke-opacity:1; fill:none" points="
  1179.96,1370.31 1179.96,1350.46 
  "/>
<polyline clip-path="url(#clip0100)" style="stroke:#000000; stroke-width:4; stroke-opacity:1; fill:none" points="
  1552.27,1370.31 1552.27,1350.46 
  "/>
<polyline clip-path="url(#clip0100)" style="stroke:#000000; stroke-width:4; stroke-opacity:1; fill:none" points="
  1924.59,1370.31 1924.59,1350.46 
  "/>
<polyline clip-path="url(#clip0100)" style="stroke:#000000; stroke-width:4; stroke-opacity:1; fill:none" points="
  2296.91,1370.31 2296.91,1350.46 
  "/>
<polyline clip-path="url(#clip0100)" style="stroke:#000000; stroke-width:4; stroke-opacity:1; fill:none" points="
  379.474,1370.31 409.073,1370.31 
  "/>
<polyline clip-path="url(#clip0100)" style="stroke:#000000; stroke-width:4; stroke-opacity:1; fill:none" points="
  379.474,1039.19 409.073,1039.19 
  "/>
<polyline clip-path="url(#clip0100)" style="stroke:#000000; stroke-width:4; stroke-opacity:1; fill:none" points="
  379.474,708.071 409.073,708.071 
  "/>
<polyline clip-path="url(#clip0100)" style="stroke:#000000; stroke-width:4; stroke-opacity:1; fill:none" points="
  379.474,376.953 409.073,376.953 
  "/>
<g clip-path="url(#clip0100)">
<text style="fill:#000000; fill-opacity:1; font-family:Arial,Helvetica Neue,Helvetica,sans-serif; font-size:48px; text-anchor:middle;" transform="rotate(0, 435.321, 1424.31)" x="435.321" y="1424.31">1</text>
</g>
<g clip-path="url(#clip0100)">
<text style="fill:#000000; fill-opacity:1; font-family:Arial,Helvetica Neue,Helvetica,sans-serif; font-size:48px; text-anchor:middle;" transform="rotate(0, 807.639, 1424.31)" x="807.639" y="1424.31">2</text>
</g>
<g clip-path="url(#clip0100)">
<text style="fill:#000000; fill-opacity:1; font-family:Arial,Helvetica Neue,Helvetica,sans-serif; font-size:48px; text-anchor:middle;" transform="rotate(0, 1179.96, 1424.31)" x="1179.96" y="1424.31">3</text>
</g>
<g clip-path="url(#clip0100)">
<text style="fill:#000000; fill-opacity:1; font-family:Arial,Helvetica Neue,Helvetica,sans-serif; font-size:48px; text-anchor:middle;" transform="rotate(0, 1552.27, 1424.31)" x="1552.27" y="1424.31">4</text>
</g>
<g clip-path="url(#clip0100)">
<text style="fill:#000000; fill-opacity:1; font-family:Arial,Helvetica Neue,Helvetica,sans-serif; font-size:48px; text-anchor:middle;" transform="rotate(0, 1924.59, 1424.31)" x="1924.59" y="1424.31">5</text>
</g>
<g clip-path="url(#clip0100)">
<text style="fill:#000000; fill-opacity:1; font-family:Arial,Helvetica Neue,Helvetica,sans-serif; font-size:48px; text-anchor:middle;" transform="rotate(0, 2296.91, 1424.31)" x="2296.91" y="1424.31">6</text>
</g>
<g clip-path="url(#clip0100)">
<text style="fill:#000000; fill-opacity:1; font-family:Arial,Helvetica Neue,Helvetica,sans-serif; font-size:48px; text-anchor:end;" transform="rotate(0, 355.474, 1387.81)" x="355.474" y="1387.81">0.000</text>
</g>
<g clip-path="url(#clip0100)">
<text style="fill:#000000; fill-opacity:1; font-family:Arial,Helvetica Neue,Helvetica,sans-serif; font-size:48px; text-anchor:end;" transform="rotate(0, 355.474, 1056.69)" x="355.474" y="1056.69">0.005</text>
</g>
<g clip-path="url(#clip0100)">
<text style="fill:#000000; fill-opacity:1; font-family:Arial,Helvetica Neue,Helvetica,sans-serif; font-size:48px; text-anchor:end;" transform="rotate(0, 355.474, 725.571)" x="355.474" y="725.571">0.010</text>
</g>
<g clip-path="url(#clip0100)">
<text style="fill:#000000; fill-opacity:1; font-family:Arial,Helvetica Neue,Helvetica,sans-serif; font-size:48px; text-anchor:end;" transform="rotate(0, 355.474, 394.453)" x="355.474" y="394.453">0.015</text>
</g>
<g clip-path="url(#clip0100)">
<text style="fill:#000000; fill-opacity:1; font-family:Arial,Helvetica Neue,Helvetica,sans-serif; font-size:66px; text-anchor:middle;" transform="rotate(0, 1366.11, 1504.17)" x="1366.11" y="1504.17">Number of threads</text>
</g>
<g clip-path="url(#clip0100)">
<text style="fill:#000000; fill-opacity:1; font-family:Arial,Helvetica Neue,Helvetica,sans-serif; font-size:66px; text-anchor:middle;" transform="rotate(-90, 199.481, 708.775)" x="199.481" y="708.775">Time [s]</text>
</g>
<polyline clip-path="url(#clip0102)" style="stroke:#009af9; stroke-width:4; stroke-opacity:1; fill:none" points="
  435.321,47.2441 807.639,443.342 1179.96,731.7 1552.27,889.541 1924.59,983.136 2296.91,995.196 
  "/>
<polyline clip-path="url(#clip0102)" style="stroke:#e26f46; stroke-width:4; stroke-opacity:1; fill:none" points="
  -196949,1135.05 199681,1135.05 
  "/>
<polygon clip-path="url(#clip0100)" points="
1834.74,312.204 2280.76,312.204 2280.76,130.764 1834.74,130.764 
  " fill="#ffffff" fill-rule="evenodd" fill-opacity="1"/>
<polyline clip-path="url(#clip0100)" style="stroke:#000000; stroke-width:4; stroke-opacity:1; fill:none" points="
  1834.74,312.204 2280.76,312.204 2280.76,130.764 1834.74,130.764 1834.74,312.204 
  "/>
<polyline clip-path="url(#clip0100)" style="stroke:#009af9; stroke-width:4; stroke-opacity:1; fill:none" points="
  1858.74,191.244 2002.74,191.244 
  "/>
<g clip-path="url(#clip0100)">
<text style="fill:#000000; fill-opacity:1; font-family:Arial,Helvetica Neue,Helvetica,sans-serif; font-size:48px; text-anchor:start;" transform="rotate(0, 2026.74, 208.744)" x="2026.74" y="208.744">y1</text>
</g>
<polyline clip-path="url(#clip0100)" style="stroke:#e26f46; stroke-width:4; stroke-opacity:1; fill:none" points="
  1858.74,251.724 2002.74,251.724 
  "/>
<g clip-path="url(#clip0100)">
<text style="fill:#000000; fill-opacity:1; font-family:Arial,Helvetica Neue,Helvetica,sans-serif; font-size:48px; text-anchor:start;" transform="rotate(0, 2026.74, 269.224)" x="2026.74" y="269.224">720 tasks</text>
</g>
</svg>
